HIERARCHY
ROOT RootJoint
{
    OFFSET   0.000000   0.000000   0.000000
    CHANNELS 6 Xposition Yposition Zposition Xrotation Yrotation Zrotation
    JOINT pelvis_lowerback
    {
        OFFSET   0.000000   0.093605   0.000000
        CHANNELS 3 Xrotation Yrotation Zrotation
        JOINT lowerback_torso
        {
            OFFSET   0.000000   0.100000   0.000000
            CHANNELS 3 Xrotation Yrotation Zrotation
            JOINT torso_head
            {
                OFFSET   0.000000   0.282350   0.000000
                CHANNELS 3 Xrotation Yrotation Zrotation
                End Site
                {
                    OFFSET   0.000000   0.192650   0.000000
                }
            }
            JOINT rTorso_Clavicle
            {
                OFFSET  -0.001000   0.157500   0.000000
                CHANNELS 3 Xrotation Yrotation Zrotation
                JOINT rShoulder
                {
                    OFFSET  -0.117647   0.000000   0.000000
                    CHANNELS 3 Xrotation Yrotation Zrotation
                    JOINT rElbow
                    {
                        OFFSET  -0.245000   0.000000   0.000000
                        CHANNELS 3 Xrotation Yrotation Zrotation
                        JOINT rWrist
                        {
                            OFFSET  -0.240000   0.000000   0.000000
                            CHANNELS 3 Xrotation Yrotation Zrotation
                            End Site
                            {
                                OFFSET  -0.116353  -0.002500   0.000000
                            }
                        }
                    }
                }
            }
            JOINT lTorso_Clavicle
            {
                OFFSET   0.001000   0.157500   0.000000
                CHANNELS 3 Xrotation Yrotation Zrotation
                JOINT lShoulder
                {
                    OFFSET   0.117647   0.000000   0.000000
                    CHANNELS 3 Xrotation Yrotation Zrotation
                    JOINT lElbow
                    {
                        OFFSET   0.245000   0.000000   0.000000
                        CHANNELS 3 Xrotation Yrotation Zrotation
                        JOINT lWrist
                        {
                            OFFSET   0.240000   0.000000   0.000000
                            CHANNELS 3 Xrotation Yrotation Zrotation
                            End Site
                            {
                                OFFSET   0.116353  -0.002500   0.000000
                            }
                        }
                    }
                }
            }
        }
    }
    JOINT rHip
    {
        OFFSET  -0.100000  -0.051395   0.000000
        CHANNELS 3 Xrotation Yrotation Zrotation
        JOINT rKnee
        {
            OFFSET   0.000000  -0.410000   0.000000
            CHANNELS 3 Xrotation Yrotation Zrotation
            JOINT rAnkle
            {
                OFFSET   0.000000  -0.390000   0.000000
                CHANNELS 3 Xrotation Yrotation Zrotation
                JOINT rToeJoint
                {
                    OFFSET   0.000000  -0.050000   0.130000
                    CHANNELS 3 Xrotation Yrotation Zrotation
                    End Site
                    {
                        OFFSET  -0.010000   0.002000   0.060000
                    }
                }
            }
        }
    }
    JOINT lHip
    {
        OFFSET   0.100000  -0.051395   0.000000
        CHANNELS 3 Xrotation Yrotation Zrotation
        JOINT lKnee
        {
            OFFSET   0.000000  -0.410000   0.000000
            CHANNELS 3 Xrotation Yrotation Zrotation
            JOINT lAnkle
            {
                OFFSET   0.000000  -0.390000   0.000000
                CHANNELS 3 Xrotation Yrotation Zrotation
                JOINT lToeJoint
                {
                    OFFSET   0.000000  -0.050000   0.130000
                    CHANNELS 3 Xrotation Yrotation Zrotation
                    End Site
                    {
                        OFFSET   0.010000   0.002000   0.060000
                    }
                }
            }
        }
    }
}
MOTION
Frames: 15
Frame Time:   0.008333
 -2.640740   1.015251   5.757419  -9.817915  -7.703099  -2.321026  14.247850   2.913513   1.471806   2.253305   1.446654   1.533574   2.956493  -0.043087   3.070104   1.472858   3.874300   5.272860  -3.065022   9.742810  45.475018  -0.006764  37.516902   0.004132   0.898020   3.542107  -6.383158   7.946996  -0.629192  -8.308848  14.756891  -5.334562 -50.303260  -0.000924 -28.754347  -0.001677   4.884374  -2.428193   1.948706   7.736817  -2.453811   3.987229   5.563950   0.000074   0.001725  57.671679  -4.487049  -0.509737 -45.000101  -0.000091  -0.000033 -18.453453  -0.404465   4.091387  40.557295   0.007139   0.024941  -4.254915   5.265956  -0.684747  -9.053318   0.001276  -0.000817
 -2.641448   1.015371   5.764147  -9.790521  -8.006881  -2.298029  14.222719   2.969612   1.453330   2.232311   1.532179   1.444898   2.969376  -0.114610   3.070735   1.328360   3.978515   5.127223  -3.313347   9.913862  45.569396  -0.006853  38.135843   0.004425   0.821575   3.536414  -6.302576   7.916789  -0.382069  -8.274306  14.774951  -5.159928 -50.299700  -0.001007 -28.934354  -0.001785   4.841366  -2.349448   1.969256   8.134239  -2.487233   3.897525   5.595270   0.000062   0.001281  57.305999  -4.354451  -0.587240 -45.000081  -0.000072  -0.000026 -18.489853  -0.435978   4.073068  38.167811   0.007507   0.026689  -3.722930   5.203865  -0.750291  -9.031715   0.001054  -0.000729
 -2.642184   1.015366   5.770903  -9.744483  -8.290509  -2.310750  14.176713   3.004518   1.460208   2.203067   1.603380   1.373095   2.984417  -0.183156   3.073150   1.192309   4.074165   4.987091  -3.547748  10.077630  45.660099  -0.006958  38.723113   0.004755   0.754023   3.591512  -6.212436   7.886497  -0.149163  -8.241392  14.789708  -4.997212 -50.297385  -0.001049 -29.105225  -0.001791   4.797567  -2.285455   2.008003   8.510934  -2.520221   3.846776   5.638665   0.000055   0.000894  56.933924  -4.217132  -0.653201 -45.000065  -0.000058  -0.000021 -18.495584  -0.475499   4.089925  35.853407   0.007246   0.027604  -3.223346   5.143637  -0.811134  -8.966628   0.000947  -0.000793
 -2.642935   1.015277   5.777671  -9.682752  -8.558630  -2.344585  14.121549   3.028077   1.475731   2.164605   1.662594   1.313819   2.996920  -0.247662   3.077071   1.065745   4.162668   4.857692  -3.766795  10.230073  45.745480  -0.006992  39.271947   0.005003   0.690635   3.659498  -6.127496   7.853554   0.064494  -8.210368  14.799910  -4.847586 -50.293345  -0.001050 -29.265970  -0.001718   4.755744  -2.231191   2.053588   8.870438  -2.550445   3.819279   5.684741   0.000050   0.000582  56.572083  -4.078888  -0.710674 -45.000052  -0.000046  -0.000017 -18.491812  -0.514290   4.121188  33.681073   0.006424   0.027716  -2.757727   5.087044  -0.866978  -8.905996   0.000856  -0.000820
 -2.643689   1.015128   5.784448  -9.606328  -8.817609  -2.390447  14.060591   3.044172   1.492320   2.120035   1.712321   1.261509   3.007098  -0.308031   3.081449   0.949090   4.244566   4.739104  -3.970549  10.371464  45.826592  -0.006942  39.783833   0.005145   0.629927   3.726061  -6.047040   7.817996   0.259994  -8.181144  14.805691  -4.710425 -50.287856  -0.001013 -29.417362  -0.001592   4.715876  -2.186068   2.103236   9.212659  -2.577977   3.805028   5.731641   0.000048   0.000335  56.226952  -3.943481  -0.761718 -45.000041  -0.000037  -0.000014 -18.481497  -0.549408   4.154704  31.656903   0.005253   0.027292  -2.323368   5.033870  -0.918380  -8.852082   0.000774  -0.000816
 -2.644437   1.014932   5.791229  -9.515099  -9.072149  -2.443885  13.995503   3.054722   1.506963   2.071403   1.754277   1.212922   3.015386  -0.364429   3.085689   0.842047   4.320130   4.630221  -4.159655  10.502440  45.903770  -0.006819  40.261062   0.005187   0.571503   3.787940  -5.969431   7.780711   0.439198  -8.153871  14.807859  -4.584667 -50.281659  -0.000947 -29.559954  -0.001428   4.677864  -2.149651   2.154958   9.536787  -2.603267   3.799093   5.778644   0.000046   0.000139  55.901180  -3.813117  -0.807665 -45.000033  -0.000030  -0.000011 -18.465183  -0.580186   4.185104  29.774653   0.003912   0.026533  -1.918042   4.983884  -0.965781  -8.804598   0.000699  -0.000789
 -2.645177   1.014695   5.798013  -9.408693  -9.325557  -2.502757  13.927480   3.060860   1.518522   2.020091   1.789660   1.166358   3.022100  -0.417093   3.089554   0.744024   4.389567   4.529771  -4.334957  10.623621  45.976959  -0.006640  40.705921   0.005147   0.515222   3.844554  -5.894178   7.742611   0.603864  -8.128679  14.807267  -4.469216 -50.275340  -0.000859 -29.694156  -0.001240   4.641610  -2.120936   2.207118   9.842279  -2.626701   3.799069   5.825143   0.000045  -0.000016  55.595284  -3.688764  -0.849354 -45.000027  -0.000024  -0.000009 -18.443012  -0.606717   4.210389  28.025545   0.002526   0.025570  -1.539759   4.936892  -1.009543  -8.762896   0.000631  -0.000750
 -2.645953   1.014404   5.804891  -9.333590  -9.537869  -2.566366  13.853451   3.075607   1.500477   2.001086   1.822671   1.149788   3.084977  -0.451224   3.114757   0.699803   4.463497   4.406142  -4.445609  10.660846  46.071343  -0.006445  41.242162   0.004950   0.461984   3.878333  -5.824648   7.675189   0.738770  -8.058186  14.720782  -4.366776 -50.307420  -0.000769 -29.771149  -0.001106   4.595706  -2.053565   2.249526  10.181317  -2.627049   3.797023   5.876012   0.000052  -0.000124  55.303547  -3.531999  -0.900098 -45.000021  -0.000019  -0.000007 -18.411812  -0.660992   4.211543  26.549844   0.001236   0.024025  -0.477904   4.847708  -1.041949  -8.904187   0.000339  -0.000165
 -2.646743   1.014074   5.811829  -9.256830  -9.735407  -2.635290  13.771409   3.086172   1.476580   1.983173   1.845520   1.136592   3.148382  -0.480580   3.139515   0.672675   4.522489   4.296607  -4.537593  10.690052  46.167244  -0.006175  41.742919   0.004725   0.413187   3.924205  -5.731600   7.600695   0.858135  -7.986412  14.630506  -4.275818 -50.330816  -0.000690 -29.846065  -0.000982   4.549130  -1.990862   2.313276  10.511718  -2.622312   3.800356   5.938934   0.000062  -0.000227  55.037144  -3.377187  -0.946119 -45.000017  -0.000015  -0.000006 -18.363308  -0.708691   4.202975  25.217252   0.000014   0.022246   0.523303   4.763670  -1.070978  -8.985690   0.000170   0.000102
 -2.647533   1.013704   5.818806  -9.168104  -9.925478  -2.709345  13.681688   3.089466   1.451284   1.959154   1.859198   1.124253   3.206647  -0.507564   3.161841   0.654880   4.572274   4.199540  -4.617384  10.713887  46.261060  -0.005901  42.208311   0.004524   0.365867   3.961730  -5.627759   7.525660   0.965829  -7.916821  14.541881  -4.193418 -50.349372  -0.000613 -29.917995  -0.000859   4.504515  -1.940877   2.386559  10.824937  -2.616569   3.810455   6.008829   0.000073  -0.000319  54.792917  -3.229099  -0.988356 -45.000014  -0.000012  -0.000005 -18.301548  -0.749852   4.187596  23.989323  -0.001093   0.020461   1.458341   4.684871  -1.096456  -9.059491   0.000040   0.000283
 -2.648319   1.013291   5.825809  -9.064102 -10.113582  -2.788451  13.586056   3.086661   1.425733   1.928539   1.865739   1.112153   3.259446  -0.532709   3.182092   0.642842   4.615220   4.111798  -4.688137  10.733796  46.350902  -0.005642  42.641244   0.004345   0.319752   3.990209  -5.521169   7.451893   1.063555  -7.850656  14.456229  -4.118427 -50.365039  -0.000537 -29.986558  -0.000736   4.461940  -1.901420   2.462787  11.119510  -2.610674   3.827113   6.081549   0.000083  -0.000397  54.567375  -3.088101  -1.027038 -45.000011  -0.000010  -0.000004 -18.229660  -0.785509   4.167276  22.852547  -0.002059   0.018770   2.331131   4.611010  -1.118832  -9.127839  -0.000060   0.000407
 -2.649096   1.012835   5.832832  -8.943471 -10.303760  -2.872363  13.486373   3.079281   1.400112   1.892284   1.866915   1.099841   3.307252  -0.556205   3.200639   0.634493   4.652742   4.031223  -4.751786  10.750691  46.435780  -0.005400  43.044337   0.004177   0.275004   4.011907  -5.416036   7.380164   1.152513  -7.788390  14.374026  -4.050034 -50.378741  -0.000460 -30.051662  -0.000613   4.421310  -1.870283   2.539080  11.395317  -2.604963   3.849718   6.154379   0.000091  -0.000462  54.357847  -2.953929  -1.062333 -45.000009  -0.000008  -0.000003 -18.149763  -0.816504   4.143334  21.798876  -0.002877   0.017217   3.145765   4.541798  -1.138506  -9.191121  -0.000138   0.000489
 -2.649862   1.012335   5.839867  -8.805549 -10.498820  -2.960767  13.384272   3.068538   1.374334   1.851587   1.864056   1.086967   3.350609  -0.578176   3.217715   0.628588   4.685790   3.956426  -4.809596  10.765180  46.515294  -0.005170  43.419873   0.004010   0.231755   4.028731  -5.314506   7.310917   1.233696  -7.730109  14.295499  -3.987542 -50.390984  -0.000385 -30.113317  -0.000492   4.382526  -1.845819   2.614093  11.652543  -2.599629   3.877625   6.225530   0.000097  -0.000515  54.162351  -2.826263  -1.094436 -45.000007  -0.000006  -0.000002 -18.063385  -0.843509   4.116740  20.821862  -0.003551   0.015815   3.906119   4.476961  -1.155820  -9.249626  -0.000196   0.000541
 -2.650634   1.011806   5.847087  -8.713473 -10.695043  -2.988191  13.288343   3.107644   1.251408   1.829657   1.886964   1.058384   3.419735  -0.592297   3.286467   0.655398   4.694908   3.889879  -4.762994  10.705045  46.674744  -0.004418  43.707726   0.003428   0.209400   4.129967  -5.276774   7.231842   1.252361  -7.585115  14.164247  -3.923255 -50.425242  -0.000322 -30.135328  -0.000410   4.344349  -1.821080   2.662127  11.938208  -2.589315   3.791428   6.352981   0.000170  -0.000659  53.935205  -2.516409  -1.014637 -45.000006  -0.000005  -0.000002 -17.968849  -0.881592   3.996480  20.154389  -0.003789   0.014268   5.668140   4.553949  -0.968727  -9.583449   0.000255   0.001073
 -2.651432   1.011239   5.854426  -8.626703 -10.881407  -3.015836  13.181714   3.146672   1.118558   1.811964   1.903892   1.028460   3.483245  -0.602125   3.347087   0.713873   4.685847   3.851716  -4.691196  10.635069  46.844714  -0.003692  43.964114   0.002911   0.184086   4.171524  -5.187582   7.152970   1.268512  -7.433720  14.037967  -3.862365 -50.444607  -0.000272 -30.156790  -0.000343   4.306060  -1.797669   2.731973  12.221876  -2.571563   3.702383   6.497204   0.000247  -0.000785  53.734990  -2.201622  -0.935933 -45.000004  -0.000004  -0.000001 -17.853196  -0.913934   3.866532  19.599563  -0.003873   0.012696   7.328452   4.632888  -0.796388  -9.813916   0.000451   0.001286
